<svg width="787" height="890" viewBox="0 0 787 890" fill="none" xmlns="http://www.w3.org/2000/svg">
<path d="M387.528 3.74142C461.773 -5.94442 537.261 3.24899 607.008 30.4709C676.755 57.693 738.507 102.064 786.548 159.478L558.933 349.828C548.692 337.59 536.501 327.032 522.789 318.612C500.43 304.88 474.827 297.323 448.593 296.71C422.359 296.098 396.432 302.452 373.455 315.124C363.099 320.836 353.508 327.739 344.863 335.661L253.282 111.251C175.842 135.672 151.505 155.268 111.282 235.195L309.557 384.724C301.377 403.11 296.998 423.027 296.762 443.273C296.455 469.505 303.114 495.349 316.057 518.169C329 540.99 347.766 559.971 370.441 573.176C393.115 586.381 418.886 593.338 445.127 593.338V890.006C370.253 890.006 296.589 871.124 230.952 835.109C165.315 799.093 109.826 747.107 69.6203 683.961C29.4145 620.816 5.7912 548.551 0.936668 473.856C-3.91786 399.16 10.1533 324.447 41.8478 256.631C73.5422 188.815 121.836 130.088 182.259 85.884C242.682 41.6799 313.284 13.4273 387.528 3.74142Z" fill="white"/>
</svg>
